# xmcd
#
# Track frame offsets: 
#        150
#        5730
#        16790
#        31200
#        50204
#        70189
#        104818
#        120355
#        140397
#        165638
#        184458
#        202039
#        221045
#
# Disc length: 3046 seconds
#
# Revision: 3
# Processed by: cddbd v1.5.2PL0 Copyright (c) Steve Scherf et al.
# Submitted via: ExactAudioCopyFreeDBPlugin 1.0
#
DISCID=c10be40d
DTITLE=Spiritual Warriors - Spiritual Warriors
DYEAR=1999
DGENRE=Rap
TTITLE0=The Legend Unfolds
TTITLE1=The Arrival
TTITLE2=Diverse Universe feat. Archetype
TTITLE3=Time Is Critical
TTITLE4=Zeitgeschehen feat. Nicodemus
TTITLE5=Mental Gear Solid
TTITLE6=U Have No Idea feat. Langston Huges
TTITLE7=Recognize - Introducing Twister
TTITLE8=Alien 2012
TTITLE9=High Frequency feat. Sean Raucous
TTITLE10=Grüner Tee feat. Curse
TTITLE11=Space Invaders
TTITLE12=Battlefield
EXTD=Spiritual Warriors
EXTT0=
EXTT1=
EXTT2=
EXTT3=
EXTT4=
EXTT5=
EXTT6=
EXTT7=
EXTT8=
EXTT9=
EXTT10=
EXTT11=
EXTT12=
PLAYORDER=
